<svg width="20" height="20" viewBox="0 0 20 20" fill="none" xmlns="http://www.w3.org/2000/svg">
<path fill-rule="evenodd" clip-rule="evenodd" d="M6.78002 1.33583C6.96296 1.62854 6.87398 2.01413 6.58127 2.19708L3.24791 4.28041C2.9552 4.46335 2.56961 4.37437 2.38667 4.08166C2.20372 3.78895 2.29271 3.40335 2.58542 3.22041L5.91877 1.13708C6.21148 0.954133 6.59708 1.04312 6.78002 1.33583ZM13.22 1.33583C13.4029 1.04312 13.7885 0.954133 14.0812 1.13708L17.4146 3.22041C17.7073 3.40335 17.7963 3.78895 17.6133 4.08166C17.4304 4.37437 17.0448 4.46335 16.7521 4.28041L13.4188 2.19707C13.126 2.01413 13.0371 1.62854 13.22 1.33583ZM10 3.95874C6.20304 3.95874 3.125 7.03678 3.125 10.8337C3.125 14.6307 6.20304 17.7087 10 17.7087C13.797 17.7087 16.875 14.6307 16.875 10.8337C16.875 7.03678 13.797 3.95874 10 3.95874ZM1.875 10.8337C1.875 6.34643 5.51269 2.70874 10 2.70874C14.4873 2.70874 18.125 6.34643 18.125 10.8337C18.125 15.3211 14.4873 18.9587 10 18.9587C5.51269 18.9587 1.875 15.3211 1.875 10.8337ZM12.2097 8.62403C12.4538 8.86811 12.4538 9.26384 12.2097 9.50792L10.8839 10.8338L12.2097 12.1596C12.4538 12.4037 12.4538 12.7994 12.2097 13.0435C11.9656 13.2875 11.5699 13.2875 11.3258 13.0435L9.99999 11.7176L8.67417 13.0435C8.4301 13.2875 8.03437 13.2875 7.79029 13.0435C7.54621 12.7994 7.54621 12.4036 7.79029 12.1596L9.1161 10.8338L7.79028 9.50793C7.5462 9.26385 7.5462 8.86813 7.79028 8.62405C8.03435 8.37997 8.43008 8.37997 8.67416 8.62405L9.99999 9.94987L11.3258 8.62403C11.5699 8.37996 11.9656 8.37996 12.2097 8.62403Z" fill="#9A9A9A"/>
</svg>
