<svg width="32" height="32" viewBox="0 0 32 32" fill="none" xmlns="http://www.w3.org/2000/svg">
<path fill-rule="evenodd" clip-rule="evenodd" d="M8.59738 2.3335C7.39942 2.33346 6.40044 2.33343 5.60741 2.44005C4.77035 2.55259 4.01461 2.80015 3.40732 3.40744C2.80003 4.01474 2.55247 4.77047 2.43993 5.60753C2.33331 6.40056 2.33334 7.39951 2.33338 8.59746V8.73617C2.33334 9.93412 2.33331 10.9331 2.43993 11.7261C2.55247 12.5632 2.80003 13.3189 3.40732 13.9262C4.01461 14.5335 4.77035 14.7811 5.60741 14.8936C6.40044 15.0002 7.39939 15.0002 8.59734 15.0002H8.73604C9.93399 15.0002 10.933 15.0002 11.726 14.8936C12.5631 14.7811 13.3188 14.5335 13.9261 13.9262C14.5334 13.3189 14.781 12.5632 14.8935 11.7261C15.0001 10.9331 15.0001 9.93416 15 8.7362V8.59751C15.0001 7.39955 15.0001 6.40056 14.8935 5.60753C14.781 4.77047 14.5334 4.01474 13.9261 3.40744C13.3188 2.80015 12.5631 2.55259 11.726 2.44005C10.933 2.33343 9.93404 2.33346 8.73608 2.3335H8.59738ZM4.82153 4.82166C4.99529 4.6479 5.25862 4.50494 5.8739 4.42221C6.51795 4.33562 7.38136 4.3335 8.66671 4.3335C9.95206 4.3335 10.8155 4.33562 11.4595 4.42221C12.0748 4.50494 12.3381 4.6479 12.5119 4.82166C12.6856 4.99541 12.8286 5.25874 12.9113 5.87402C12.9979 6.51807 13 7.38148 13 8.66683C13 9.95218 12.9979 10.8156 12.9113 11.4596C12.8286 12.0749 12.6856 12.3383 12.5119 12.512C12.3381 12.6858 12.0748 12.8287 11.4595 12.9115C10.8155 12.998 9.95206 13.0002 8.66671 13.0002C7.38136 13.0002 6.51795 12.998 5.8739 12.9115C5.25862 12.8287 4.99529 12.6858 4.82153 12.512C4.64778 12.3383 4.50481 12.0749 4.42209 11.4596C4.3355 10.8156 4.33338 9.95218 4.33338 8.66683C4.33338 7.38148 4.3355 6.51807 4.42209 5.87402C4.50481 5.25874 4.64778 4.99541 4.82153 4.82166Z" fill="black"/>
<path fill-rule="evenodd" clip-rule="evenodd" d="M23.264 17.0002C22.0661 17.0001 21.0671 17.0001 20.2741 17.1067C19.437 17.2193 18.6813 17.4668 18.074 18.0741C17.4667 18.6814 17.2191 19.4371 17.1066 20.2742C17 21.0672 17 22.0662 17 23.2642V23.4028C17 24.6008 17 25.5998 17.1066 26.3928C17.2191 27.2299 17.4667 27.9856 18.074 28.5929C18.6813 29.2002 19.437 29.4477 20.2741 29.5603C21.0671 29.6669 22.066 29.6669 23.2639 29.6668H23.4027C24.6006 29.6669 25.5997 29.6669 26.3927 29.5603C27.2297 29.4477 27.9855 29.2002 28.5928 28.5929C29.2001 27.9856 29.4476 27.2299 29.5602 26.3928C29.6668 25.5998 29.6668 24.6009 29.6667 23.403V23.2642C29.6668 22.0663 29.6668 21.0672 29.5602 20.2742C29.4476 19.4371 29.2001 18.6814 28.5928 18.0741C27.9855 17.4668 27.2297 17.2193 26.3927 17.1067C25.5996 17.0001 24.6007 17.0001 23.4027 17.0002H23.264ZM19.4882 19.4883C19.662 19.3146 19.9253 19.1716 20.5406 19.0889C21.1846 19.0023 22.048 19.0002 23.3334 19.0002C24.6187 19.0002 25.4821 19.0023 26.1262 19.0889C26.7415 19.1716 27.0048 19.3146 27.1786 19.4883C27.3523 19.6621 27.4953 19.9254 27.578 20.5407C27.6646 21.1847 27.6667 22.0482 27.6667 23.3335C27.6667 24.6189 27.6646 25.4823 27.578 26.1263C27.4953 26.7416 27.3523 27.0049 27.1786 27.1787C27.0048 27.3524 26.7415 27.4954 26.1262 27.5781C25.4821 27.6647 24.6187 27.6668 23.3334 27.6668C22.048 27.6668 21.1846 27.6647 20.5406 27.5781C19.9253 27.4954 19.662 27.3524 19.4882 27.1787C19.3144 27.0049 19.1715 26.7416 19.0888 26.1263C19.0022 25.4823 19 24.6189 19 23.3335C19 22.0482 19.0022 21.1847 19.0888 20.5407C19.1715 19.9254 19.3144 19.6621 19.4882 19.4883Z" fill="black"/>
<path fill-rule="evenodd" clip-rule="evenodd" d="M8.59738 17.0002H8.73604C9.93402 17.0001 10.933 17.0001 11.726 17.1067C12.5631 17.2193 13.3188 17.4668 13.9261 18.0741C14.5334 18.6814 14.781 19.4371 14.8935 20.2742C15.0001 21.0672 15.0001 22.0662 15 23.2641V23.4028C15.0001 24.6008 15.0001 25.5998 14.8935 26.3928C14.781 27.2299 14.5334 27.9856 13.9261 28.5929C13.3188 29.2002 12.5631 29.4477 11.726 29.5603C10.933 29.6669 9.93406 29.6669 8.73612 29.6668H8.59739C7.39945 29.6669 6.40043 29.6669 5.60741 29.5603C4.77035 29.4477 4.01461 29.2002 3.40732 28.5929C2.80003 27.9856 2.55247 27.2299 2.43993 26.3928C2.33331 25.5998 2.33334 24.6008 2.33338 23.4029V23.2642C2.33334 22.0662 2.33331 21.0672 2.43993 20.2742C2.55247 19.4371 2.80003 18.6814 3.40732 18.0741C4.01461 17.4668 4.77035 17.2193 5.60741 17.1067C6.40045 17.0001 7.39941 17.0001 8.59738 17.0002ZM5.8739 19.0889C5.25862 19.1716 4.99529 19.3146 4.82153 19.4883C4.64778 19.6621 4.50481 19.9254 4.42209 20.5407C4.3355 21.1847 4.33338 22.0482 4.33338 23.3335C4.33338 24.6189 4.3355 25.4823 4.42209 26.1263C4.50481 26.7416 4.64778 27.0049 4.82153 27.1787C4.99529 27.3524 5.25862 27.4954 5.8739 27.5781C6.51795 27.6647 7.38136 27.6668 8.66671 27.6668C9.95206 27.6668 10.8155 27.6647 11.4595 27.5781C12.0748 27.4954 12.3381 27.3524 12.5119 27.1787C12.6856 27.0049 12.8286 26.7416 12.9113 26.1263C12.9979 25.4823 13 24.6189 13 23.3335C13 22.0482 12.9979 21.1847 12.9113 20.5407C12.8286 19.9254 12.6856 19.6621 12.5119 19.4883C12.3381 19.3146 12.0748 19.1716 11.4595 19.0889C10.8155 19.0023 9.95206 19.0002 8.66671 19.0002C7.38136 19.0002 6.51795 19.0023 5.8739 19.0889Z" fill="black"/>
<path fill-rule="evenodd" clip-rule="evenodd" d="M23.264 2.3335C22.0661 2.33346 21.0671 2.33343 20.2741 2.44005C19.437 2.55259 18.6813 2.80015 18.074 3.40744C17.4667 4.01474 17.2191 4.77047 17.1066 5.60753C17 6.40057 17 7.39953 17 8.5975V8.73617C17 9.93414 17 10.9331 17.1066 11.7261C17.2191 12.5632 17.4667 13.3189 18.074 13.9262C18.6813 14.5335 19.437 14.7811 20.2741 14.8936C21.0671 15.0002 22.0661 15.0002 23.264 15.0002H23.4027C24.6007 15.0002 25.5997 15.0002 26.3927 14.8936C27.2297 14.7811 27.9855 14.5335 28.5928 13.9262C29.2001 13.3189 29.4476 12.5632 29.5602 11.7261C29.6668 10.9331 29.6668 9.93416 29.6667 8.7362V8.59751C29.6668 7.39955 29.6668 6.40056 29.5602 5.60753C29.4476 4.77047 29.2001 4.01474 28.5928 3.40744C27.9855 2.80015 27.2297 2.55259 26.3927 2.44005C25.5997 2.33343 24.6007 2.33346 23.4027 2.3335H23.264ZM19.4882 4.82166C19.662 4.6479 19.9253 4.50494 20.5406 4.42221C21.1846 4.33562 22.048 4.3335 23.3334 4.3335C24.6187 4.3335 25.4821 4.33562 26.1262 4.42221C26.7415 4.50494 27.0048 4.6479 27.1786 4.82166C27.3523 4.99541 27.4953 5.25874 27.578 5.87402C27.6646 6.51807 27.6667 7.38148 27.6667 8.66683C27.6667 9.95218 27.6646 10.8156 27.578 11.4596C27.4953 12.0749 27.3523 12.3383 27.1786 12.512C27.0048 12.6858 26.7415 12.8287 26.1262 12.9115C25.4821 12.998 24.6187 13.0002 23.3334 13.0002C22.048 13.0002 21.1846 12.998 20.5406 12.9115C19.9253 12.8287 19.662 12.6858 19.4882 12.512C19.3144 12.3383 19.1715 12.0749 19.0888 11.4596C19.0022 10.8156 19 9.95218 19 8.66683C19 7.38148 19.0022 6.51807 19.0888 5.87402C19.1715 5.25874 19.3144 4.99541 19.4882 4.82166Z" fill="black"/>
</svg>
