<svg width="20" height="20" viewBox="0 0 20 20" fill="none" xmlns="http://www.w3.org/2000/svg">
<path fill-rule="evenodd" clip-rule="evenodd" d="M5.37338 1.4585C4.62465 1.45847 4.00029 1.45845 3.50464 1.52509C2.98148 1.59543 2.50915 1.75015 2.12959 2.12971C1.75003 2.50927 1.59531 2.9816 1.52497 3.50477C1.45833 4.00041 1.45835 4.62475 1.45837 5.37348V5.46017C1.45835 6.20889 1.45833 6.83325 1.52497 7.3289C1.59531 7.85206 1.75003 8.32439 2.12959 8.70395C2.50915 9.08351 2.98148 9.23824 3.50464 9.30857C4.00029 9.37521 4.62463 9.37519 5.37336 9.37517H5.46004C6.20876 9.37519 6.83313 9.37521 7.32878 9.30857C7.85194 9.23824 8.32427 9.08351 8.70383 8.70395C9.08339 8.32439 9.23811 7.85206 9.30845 7.3289C9.37509 6.83325 9.37507 6.20891 9.37505 5.46019V5.3735C9.37507 4.62478 9.37509 4.00041 9.30845 3.50477C9.23811 2.9816 9.08339 2.50927 8.70383 2.12971C8.32427 1.75015 7.85194 1.59543 7.32878 1.52509C6.83313 1.45845 6.20879 1.45847 5.46007 1.4585H5.37338ZM3.01347 3.0136C3.12207 2.905 3.28665 2.81565 3.6712 2.76395C4.07373 2.70983 4.61337 2.7085 5.41671 2.7085C6.22005 2.7085 6.75969 2.70983 7.16222 2.76395C7.54677 2.81565 7.71135 2.905 7.81995 3.0136C7.92854 3.12219 8.0179 3.28677 8.0696 3.67133C8.12372 4.07386 8.12504 4.61349 8.12504 5.41683C8.12504 6.22018 8.12372 6.75981 8.0696 7.16234C8.0179 7.54689 7.92854 7.71147 7.81995 7.82007C7.71135 7.92867 7.54677 8.01802 7.16222 8.06972C6.75969 8.12384 6.22005 8.12517 5.41671 8.12517C4.61337 8.12517 4.07373 8.12384 3.6712 8.06972C3.28665 8.01802 3.12207 7.92867 3.01347 7.82007C2.90488 7.71147 2.81552 7.54689 2.76382 7.16234C2.7097 6.75981 2.70838 6.22018 2.70838 5.41683C2.70838 4.61349 2.7097 4.07386 2.76382 3.67133C2.81552 3.28677 2.90488 3.12219 3.01347 3.0136Z" fill="#9A9A9A"/>
<path fill-rule="evenodd" clip-rule="evenodd" d="M14.54 10.6252C13.7913 10.6251 13.167 10.6251 12.6713 10.6918C12.1481 10.7621 11.6758 10.9168 11.2963 11.2964C10.9167 11.6759 10.762 12.1483 10.6916 12.6714C10.625 13.1671 10.625 13.7914 10.625 14.5402V14.6268C10.625 15.3756 10.625 15.9999 10.6916 16.4956C10.762 17.0187 10.9167 17.4911 11.2963 17.8706C11.6758 18.2502 12.1481 18.4049 12.6713 18.4752C13.1669 18.5419 13.7913 18.5419 14.54 18.5418H14.6267C15.3754 18.5419 15.9998 18.5419 16.4954 18.4752C17.0186 18.4049 17.4909 18.2502 17.8705 17.8706C18.2501 17.4911 18.4048 17.0187 18.4751 16.4956C18.5418 15.9999 18.5417 15.3756 18.5417 14.6269V14.5402C18.5417 13.7915 18.5418 13.1671 18.4751 12.6714C18.4048 12.1483 18.2501 11.6759 17.8705 11.2964C17.4909 10.9168 17.0186 10.7621 16.4954 10.6918C15.9998 10.6251 15.3754 10.6251 14.6267 10.6252H14.54ZM12.1801 12.1803C12.2887 12.0717 12.4533 11.9823 12.8379 11.9306C13.2404 11.8765 13.78 11.8752 14.5834 11.8752C15.3867 11.8752 15.9264 11.8765 16.3289 11.9306C16.7134 11.9823 16.878 12.0717 16.9866 12.1803C17.0952 12.2889 17.1846 12.4534 17.2363 12.838C17.2904 13.2405 17.2917 13.7802 17.2917 14.5835C17.2917 15.3868 17.2904 15.9265 17.2363 16.329C17.1846 16.7136 17.0952 16.8781 16.9866 16.9867C16.878 17.0953 16.7134 17.1847 16.3289 17.2364C15.9264 17.2905 15.3867 17.2918 14.5834 17.2918C13.78 17.2918 13.2404 17.2905 12.8379 17.2364C12.4533 17.1847 12.2887 17.0953 12.1801 16.9867C12.0715 16.8781 11.9822 16.7136 11.9305 16.329C11.8764 15.9265 11.875 15.3868 11.875 14.5835C11.875 13.7802 11.8764 13.2405 11.9305 12.838C11.9822 12.4534 12.0715 12.2889 12.1801 12.1803Z" fill="#9A9A9A"/>
<path fill-rule="evenodd" clip-rule="evenodd" d="M5.37338 10.6252H5.46004C6.20878 10.6251 6.83313 10.6251 7.32878 10.6918C7.85194 10.7621 8.32427 10.9168 8.70383 11.2964C9.08339 11.6759 9.23811 12.1483 9.30845 12.6714C9.37509 13.1671 9.37507 13.7914 9.37505 14.5401V14.6268C9.37507 15.3756 9.37509 15.9999 9.30845 16.4956C9.23811 17.0187 9.08339 17.4911 8.70383 17.8706C8.32427 18.2502 7.85194 18.4049 7.32878 18.4752C6.83314 18.5419 6.2088 18.5419 5.46009 18.5418H5.37338C4.62467 18.5419 4.00028 18.5419 3.50464 18.4752C2.98148 18.4049 2.50915 18.2502 2.12959 17.8706C1.75003 17.4911 1.59531 17.0187 1.52497 16.4956C1.45833 15.9999 1.45835 15.3756 1.45837 14.6269V14.5402C1.45835 13.7914 1.45833 13.1671 1.52497 12.6714C1.59531 12.1483 1.75003 11.6759 2.12959 11.2964C2.50915 10.9168 2.98148 10.7621 3.50464 10.6918C4.0003 10.6251 4.62464 10.6251 5.37338 10.6252ZM3.6712 11.9306C3.28665 11.9823 3.12207 12.0717 3.01347 12.1803C2.90488 12.2889 2.81552 12.4534 2.76382 12.838C2.7097 13.2405 2.70838 13.7802 2.70838 14.5835C2.70838 15.3868 2.7097 15.9265 2.76382 16.329C2.81552 16.7136 2.90488 16.8781 3.01347 16.9867C3.12207 17.0953 3.28665 17.1847 3.6712 17.2364C4.07373 17.2905 4.61337 17.2918 5.41671 17.2918C6.22005 17.2918 6.75969 17.2905 7.16222 17.2364C7.54677 17.1847 7.71135 17.0953 7.81995 16.9867C7.92854 16.8781 8.0179 16.7136 8.0696 16.329C8.12372 15.9265 8.12504 15.3868 8.12504 14.5835C8.12504 13.7802 8.12372 13.2405 8.0696 12.838C8.0179 12.4534 7.92854 12.2889 7.81995 12.1803C7.71135 12.0717 7.54677 11.9823 7.16222 11.9306C6.75969 11.8765 6.22005 11.8752 5.41671 11.8752C4.61337 11.8752 4.07373 11.8765 3.6712 11.9306Z" fill="#9A9A9A"/>
<path fill-rule="evenodd" clip-rule="evenodd" d="M14.54 1.4585C13.7913 1.45847 13.167 1.45845 12.6713 1.52509C12.1481 1.59543 11.6758 1.75015 11.2963 2.12971C10.9167 2.50927 10.762 2.9816 10.6916 3.50477C10.625 4.00042 10.625 4.62477 10.625 5.3735V5.46017C10.625 6.2089 10.625 6.83325 10.6916 7.3289C10.762 7.85206 10.9167 8.32439 11.2963 8.70395C11.6758 9.08351 12.1481 9.23824 12.6713 9.30857C13.167 9.37521 13.7913 9.37519 14.54 9.37517H14.6267C15.3754 9.37519 15.9998 9.37521 16.4954 9.30857C17.0186 9.23824 17.4909 9.08351 17.8705 8.70395C18.2501 8.32439 18.4048 7.85206 18.4751 7.3289C18.5418 6.83325 18.5417 6.20891 18.5417 5.46019V5.3735C18.5417 4.62478 18.5418 4.00041 18.4751 3.50477C18.4048 2.9816 18.2501 2.50927 17.8705 2.12971C17.4909 1.75015 17.0186 1.59543 16.4954 1.52509C15.9998 1.45845 15.3755 1.45847 14.6267 1.4585H14.54ZM12.1801 3.0136C12.2887 2.905 12.4533 2.81565 12.8379 2.76395C13.2404 2.70983 13.78 2.7085 14.5834 2.7085C15.3867 2.7085 15.9264 2.70983 16.3289 2.76395C16.7134 2.81565 16.878 2.905 16.9866 3.0136C17.0952 3.12219 17.1846 3.28677 17.2363 3.67133C17.2904 4.07386 17.2917 4.61349 17.2917 5.41683C17.2917 6.22018 17.2904 6.75981 17.2363 7.16234C17.1846 7.54689 17.0952 7.71147 16.9866 7.82007C16.878 7.92867 16.7134 8.01802 16.3289 8.06972C15.9264 8.12384 15.3867 8.12517 14.5834 8.12517C13.78 8.12517 13.2404 8.12384 12.8379 8.06972C12.4533 8.01802 12.2887 7.92867 12.1801 7.82007C12.0715 7.71147 11.9822 7.54689 11.9305 7.16234C11.8764 6.75981 11.875 6.22018 11.875 5.41683C11.875 4.61349 11.8764 4.07386 11.9305 3.67133C11.9822 3.28677 12.0715 3.12219 12.1801 3.0136Z" fill="#9A9A9A"/>
</svg>
