<svg width="73" height="73" viewBox="0 0 73 73" fill="none" xmlns="http://www.w3.org/2000/svg">
<path fill-rule="evenodd" clip-rule="evenodd" d="M35.0584 6.10342C33.2467 4.90241 31.4788 4.55507 29.5317 4.86707C27.8708 5.13322 26.0727 5.89392 24.1432 6.71023L23.9411 6.7957C22.0767 7.58397 20.2819 8.5497 18.5829 9.68498C13.2794 13.2287 9.14582 18.2654 6.7049 24.1583C4.26397 30.0512 3.62532 36.5356 4.86969 42.7915C6.11406 49.0474 9.18558 54.7938 13.6958 59.3041C18.2061 63.8143 23.9525 66.8858 30.2083 68.1302C36.4642 69.3746 42.9486 68.7359 48.8415 66.295C54.7345 63.854 59.7712 59.7205 63.3149 54.417C64.4502 52.7179 65.4159 50.9232 66.2042 49.0587L66.2896 48.8567C67.1059 46.9272 67.8666 45.1291 68.1328 43.4681C68.4448 41.5211 68.0975 39.7532 66.8965 37.9415C65.6067 35.9959 63.8512 35.0551 61.7194 34.6291C59.8193 34.2494 57.444 34.2496 54.7133 34.2499L48.5 34.2499C45.608 34.2499 43.6653 34.2451 42.2162 34.0503C40.8318 33.8641 40.2393 33.5425 39.8484 33.1515C39.4574 32.7606 39.1357 32.1681 38.9496 30.7837C38.7548 29.3346 38.75 27.3919 38.75 24.4999L38.75 18.2866C38.7503 15.5559 38.7505 13.1806 38.3708 11.2805C37.9448 9.14872 37.004 7.39316 35.0584 6.10342ZM25.6935 10.9405C27.896 10.0093 29.1869 9.47973 30.2437 9.31039C31.0722 9.17763 31.6989 9.27534 32.572 9.85413C33.3112 10.3442 33.7128 10.9354 33.958 12.1623C34.2397 13.5716 34.25 15.4927 34.25 18.4999L34.25 24.6558C34.2499 27.3513 34.2498 29.599 34.4897 31.3833C34.743 33.2667 35.3 34.9671 36.6664 36.3335C38.0328 37.6999 39.7332 38.2569 41.6166 38.5101C43.4009 38.75 45.6485 38.75 48.3439 38.7499L54.5 38.7499C57.5071 38.7499 59.4282 38.7602 60.8375 39.0418C62.0645 39.287 62.6557 39.6886 63.1457 40.4279C63.7245 41.301 63.8222 41.9277 63.6895 42.7561C63.5201 43.8129 62.9906 45.1038 62.0594 47.3064C61.3811 48.9106 60.5502 50.4549 59.5733 51.9169C56.5241 56.4804 52.1901 60.0372 47.1195 62.1375C42.0488 64.2378 36.4692 64.7874 31.0863 63.7167C25.7033 62.6459 20.7587 60.003 16.8778 56.1221C12.9969 52.2412 10.354 47.2966 9.28322 41.9136C8.21248 36.5306 8.76203 30.951 10.8624 25.8804C12.9627 20.8098 16.5195 16.4758 21.0829 13.4266C22.545 12.4497 24.0892 11.6187 25.6935 10.9405Z" fill="#9A9A9A"/>
<path d="M44.5608 5.26535C43.3574 4.95562 42.1308 5.68009 41.821 6.88351C41.5113 8.08693 42.2357 9.31358 43.4392 9.62332C53.1873 12.1323 60.8669 19.8119 63.3759 29.56C63.6856 30.7635 64.9123 31.4879 66.1157 31.1782C67.3191 30.8685 68.0436 29.6418 67.7339 28.4384C64.8162 17.1024 55.8968 8.18302 44.5608 5.26535Z" fill="#9A9A9A"/>
</svg>
