<svg width="24" height="25" viewBox="0 0 24 25" fill="none" xmlns="http://www.w3.org/2000/svg">
<path fill-rule="evenodd" clip-rule="evenodd" d="M12 2.75C10.4812 2.75 9.25 3.98122 9.25 5.5C9.25 6.28328 9.57756 6.98937 10.1018 7.48967C10.0375 7.60378 9.97102 7.72294 9.90223 7.84628L8.10504 11.0686C7.92732 11.3873 7.82158 11.5749 7.7325 11.7018C7.70459 11.7415 7.68483 11.7655 7.67287 11.7788L7.67118 11.7791C7.65596 11.7695 7.63012 11.7518 7.5918 11.7208C7.47104 11.6231 7.31753 11.4715 7.05879 11.2138L6.97976 11.135C6.6607 10.817 6.37058 10.5279 6.10664 10.2914C6.19926 10.0451 6.25 9.77824 6.25 9.5C6.25 8.25736 5.24264 7.25 4 7.25C2.75736 7.25 1.75 8.25736 1.75 9.5C1.75 10.483 2.3804 11.3188 3.25898 11.6251C3.26199 11.6822 3.26564 11.7399 3.26976 11.798C3.29277 12.1228 3.33458 12.5116 3.38243 12.9564L3.5671 14.6733C3.59705 14.9517 3.62574 15.2289 3.65412 15.5031C3.76616 16.5856 3.87332 17.621 4.03322 18.494C4.1343 19.0459 4.26178 19.5659 4.43833 20.0172C4.61339 20.4648 4.8549 20.8925 5.21187 21.212C5.84173 21.7758 6.60137 22.022 7.50819 22.1381C8.38307 22.25 9.48625 22.25 10.8602 22.25H13.1398C14.5137 22.25 15.6169 22.25 16.4918 22.1381C17.3986 22.022 18.1583 21.7758 18.7881 21.212C19.1451 20.8925 19.3866 20.4648 19.5617 20.0172C19.7382 19.5659 19.8657 19.0459 19.9668 18.494C20.1267 17.6211 20.2338 16.5858 20.3459 15.5034C20.3742 15.2293 20.403 14.9516 20.4329 14.6733L20.6176 12.9565C20.6654 12.5116 20.7072 12.1228 20.7302 11.798C20.7344 11.7399 20.738 11.6822 20.741 11.6251C21.6196 11.3188 22.25 10.483 22.25 9.5C22.25 8.25736 21.2426 7.25 20 7.25C18.7574 7.25 17.75 8.25736 17.75 9.5C17.75 9.77824 17.8007 10.0451 17.8934 10.2914C17.6294 10.5279 17.3393 10.817 17.0202 11.135L16.9412 11.2138C16.6825 11.4715 16.529 11.6231 16.4082 11.7208C16.3699 11.7518 16.344 11.7695 16.3288 11.7791L16.3271 11.7788C16.3152 11.7655 16.2954 11.7415 16.2675 11.7018C16.1784 11.5749 16.0727 11.3873 15.895 11.0686L14.0977 7.84619C14.0289 7.72288 13.9625 7.60375 13.8982 7.48967C14.4224 6.98937 14.75 6.28328 14.75 5.5C14.75 3.98122 13.5188 2.75 12 2.75ZM10.75 5.5C10.75 4.80964 11.3096 4.25 12 4.25C12.6904 4.25 13.25 4.80964 13.25 5.5C13.25 5.98504 12.9739 6.40689 12.5668 6.61457C12.3975 6.70095 12.2056 6.75 12 6.75C11.7944 6.75 11.6025 6.70095 11.4332 6.61457C11.0261 6.40689 10.75 5.98504 10.75 5.5ZM11.2046 8.59072C11.2857 8.44528 11.3599 8.31229 11.4288 8.19043C11.6133 8.22949 11.8045 8.25 12 8.25C12.1955 8.25 12.3867 8.22949 12.5712 8.19043C12.6401 8.31229 12.7143 8.44528 12.7954 8.59071L14.6016 11.8291C14.7569 12.1077 14.9005 12.3653 15.0399 12.5638C15.1885 12.7753 15.3911 13.0089 15.7015 13.1456C15.9698 13.2637 16.2657 13.3049 16.556 13.2648C16.8918 13.2184 17.1507 13.0495 17.3517 12.8869C17.5403 12.7343 17.7493 12.526 17.9756 12.3006L17.9998 12.2765C18.3752 11.9026 18.6497 11.6315 18.8593 11.4397C18.9792 11.5103 19.1061 11.5701 19.2389 11.6179C19.2374 11.6417 19.2358 11.6664 19.234 11.692C19.2131 11.9865 19.1743 12.3486 19.1249 12.8082L18.9415 14.5129C18.9095 14.8104 18.8794 15.1003 18.8502 15.3822C18.7807 16.053 18.7159 16.678 18.641 17.25H5.35903C5.28409 16.678 5.2193 16.053 5.14978 15.3822C5.12056 15.1003 5.0905 14.8104 5.0585 14.5129L4.87514 12.8082C4.82571 12.3486 4.78687 11.9865 4.76601 11.692C4.7642 11.6664 4.76255 11.6417 4.76107 11.6179C4.89386 11.5701 5.02084 11.5103 5.14066 11.4397C5.35033 11.6315 5.62484 11.9026 6.0002 12.2765L6.02438 12.3006C6.25065 12.526 6.45971 12.7343 6.64834 12.8869C6.84933 13.0495 7.10824 13.2184 7.44397 13.2648C7.73429 13.3049 8.03016 13.2637 8.29846 13.1456C8.60887 13.0089 8.81155 12.7753 8.96009 12.5638C9.09945 12.3653 9.24306 12.1078 9.39842 11.8291L11.2046 8.59072ZM5.61801 18.75C5.68337 19.026 5.75521 19.2662 5.83525 19.4708C5.96405 19.8 6.0962 19.9904 6.21228 20.0943C6.52851 20.3774 6.9509 20.5545 7.69857 20.6502C8.46719 20.7486 9.47421 20.75 10.9121 20.75H13.0879C14.5258 20.75 15.5328 20.7486 16.3014 20.6502C17.0491 20.5545 17.4715 20.3774 17.7877 20.0943C17.9038 19.9904 18.036 19.8 18.1647 19.4708C18.2448 19.2662 18.3166 19.026 18.382 18.75H5.61801ZM3.25 9.5C3.25 9.08579 3.58579 8.75 4 8.75C4.41421 8.75 4.75 9.08579 4.75 9.5C4.75 9.68789 4.68188 9.85799 4.56799 9.98982C4.4311 10.1483 4.23192 10.2474 4.00904 10.2499L4 10.25C3.58579 10.25 3.25 9.91421 3.25 9.5ZM19.25 9.5C19.25 9.08579 19.5858 8.75 20 8.75C20.4142 8.75 20.75 9.08579 20.75 9.5C20.75 9.91421 20.4142 10.25 20 10.25L19.991 10.2499C19.7681 10.2474 19.5689 10.1483 19.432 9.98982C19.3181 9.85799 19.25 9.68789 19.25 9.5Z" fill="white"/>
</svg>
