<svg width="20" height="20" viewBox="0 0 20 20" fill="none" xmlns="http://www.w3.org/2000/svg">
<path fill-rule="evenodd" clip-rule="evenodd" d="M5.83329 1.4585C6.17847 1.4585 6.45829 1.73832 6.45829 2.0835V2.7191C7.00998 2.70848 7.6178 2.70849 8.28628 2.7085H11.7136C12.3821 2.70849 12.9899 2.70848 13.5416 2.7191V2.0835C13.5416 1.73832 13.8214 1.4585 14.1666 1.4585C14.5118 1.4585 14.7916 1.73832 14.7916 2.0835V2.77274C15.0082 2.78925 15.2134 2.81001 15.4075 2.83611C16.3845 2.96746 17.1753 3.24423 17.7989 3.86787C18.4226 4.4915 18.6993 5.28229 18.8307 6.25931C18.8727 6.57155 18.9008 6.91232 18.9197 7.28356C18.9447 7.35105 18.9583 7.42401 18.9583 7.50016C18.9583 7.55793 18.9505 7.61386 18.9358 7.66697C18.9583 8.33528 18.9583 9.09412 18.9583 9.95315V11.7138C18.9583 13.2453 18.9583 14.4583 18.8307 15.4077C18.6993 16.3847 18.4226 17.1755 17.7989 17.7991C17.1753 18.4228 16.3845 18.6995 15.4075 18.8309C14.4581 18.9585 13.2451 18.9585 11.7136 18.9585H8.28628C6.75482 18.9585 5.54179 18.9585 4.59244 18.8309C3.61542 18.6995 2.82463 18.4228 2.201 17.7991C1.57736 17.1755 1.3006 16.3847 1.16924 15.4077C1.0416 14.4583 1.04161 13.2453 1.04163 11.7138V9.95315C1.04162 9.09412 1.04161 8.33528 1.06413 7.66697C1.04946 7.61387 1.04163 7.55793 1.04163 7.50016C1.04163 7.42401 1.05525 7.35104 1.08018 7.28355C1.09909 6.91231 1.12726 6.57155 1.16924 6.25931C1.3006 5.28229 1.57736 4.4915 2.201 3.86787C2.82463 3.24423 3.61542 2.96746 4.59244 2.83611C4.78655 2.81001 4.99167 2.78925 5.20829 2.77274V2.0835C5.20829 1.73832 5.48811 1.4585 5.83329 1.4585ZM2.30253 8.12516C2.29189 8.6691 2.29163 9.28848 2.29163 10.0002V11.6668C2.29163 13.2558 2.29295 14.3847 2.40809 15.2411C2.52081 16.0795 2.7322 16.5626 3.08488 16.9152C3.43755 17.2679 3.92059 17.4793 4.759 17.592C5.61539 17.7072 6.74428 17.7085 8.33329 17.7085H11.6666C13.2556 17.7085 14.3845 17.7072 15.2409 17.592C16.0793 17.4793 16.5624 17.2679 16.915 16.9152C17.2677 16.5626 17.4791 16.0795 17.5918 15.2411C17.707 14.3847 17.7083 13.2558 17.7083 11.6668V10.0002C17.7083 9.28848 17.708 8.6691 17.6974 8.12516H2.30253ZM17.6402 6.87516H2.3597C2.37304 6.71734 2.389 6.56786 2.40809 6.42587C2.52081 5.58746 2.7322 5.10442 3.08488 4.75175C3.43755 4.39907 3.92059 4.18768 4.759 4.07496C5.61539 3.95982 6.74428 3.9585 8.33329 3.9585H11.6666C13.2556 3.9585 14.3845 3.95982 15.2409 4.07496C16.0793 4.18768 16.5624 4.39907 16.915 4.75175C17.2677 5.10442 17.4791 5.58746 17.5918 6.42587C17.6109 6.56786 17.6269 6.71734 17.6402 6.87516Z" fill="black"/>
</svg>
