<svg width="32" height="32" viewBox="0 0 32 32" fill="none" xmlns="http://www.w3.org/2000/svg">
<path fill-rule="evenodd" clip-rule="evenodd" d="M10.5935 3H21.4065C23.2299 2.99997 24.6997 2.99995 25.8556 3.15537C27.0558 3.31672 28.0663 3.66191 28.8688 4.46447C29.6714 5.26702 30.0166 6.27752 30.1779 7.47767C30.3333 8.63362 30.3333 10.1034 30.3333 11.9268V13.4065C30.3333 15.2299 30.3333 16.6997 30.1779 17.8557C30.0166 19.0558 29.6714 20.0663 28.8688 20.8689C28.0663 21.6714 27.0558 22.0166 25.8556 22.178C24.6997 22.3334 23.2299 22.3334 21.4065 22.3333H17V24.6126L24.3162 27.0513C24.8401 27.226 25.1233 27.7923 24.9486 28.3162C24.774 28.8402 24.2077 29.1233 23.6837 28.9487L16 26.3874L8.31619 28.9487C7.79224 29.1233 7.22593 28.8402 7.05128 28.3162C6.87663 27.7923 7.15979 27.226 7.68373 27.0513L15 24.6126V22.3333H10.5935C8.77001 22.3334 7.30025 22.3334 6.14429 22.178C4.94415 22.0166 3.93365 21.6714 3.13109 20.8689C2.32854 20.0663 1.98335 19.0558 1.82199 17.8557C1.66658 16.6997 1.6666 15.23 1.66663 13.4065V11.9268C1.6666 10.1034 1.66658 8.63362 1.82199 7.47767C1.98335 6.27752 2.32854 5.26702 3.13109 4.46447C3.93365 3.66191 4.94415 3.31672 6.14429 3.15537C7.30025 2.99995 8.77001 2.99997 10.5935 3ZM6.41079 5.13753C5.43242 5.26907 4.91432 5.50966 4.54531 5.87868C4.17629 6.2477 3.9357 6.76579 3.80416 7.74416C3.66875 8.7513 3.66663 10.0861 3.66663 12V13.3333C3.66663 15.2472 3.66875 16.582 3.80416 17.5892C3.93569 18.5675 4.17629 19.0856 4.54531 19.4547C4.91432 19.8237 5.43242 20.0643 6.41079 20.1958C7.41792 20.3312 8.75274 20.3333 10.6666 20.3333H21.3333C23.2472 20.3333 24.582 20.3312 25.5891 20.1958C26.5675 20.0643 27.0856 19.8237 27.4546 19.4547C27.8236 19.0856 28.0642 18.5675 28.1958 17.5892C28.3312 16.582 28.3333 15.2472 28.3333 13.3333V12C28.3333 10.0861 28.3312 8.7513 28.1958 7.74416C28.0642 6.76579 27.8236 6.2477 27.4546 5.87868C27.0856 5.50966 26.5675 5.26907 25.5891 5.13753C24.582 5.00213 23.2472 5 21.3333 5H10.6666C8.75274 5 7.41792 5.00213 6.41079 5.13753Z" fill="black"/>
</svg>
