<svg width="33" height="32" viewBox="0 0 33 32" fill="none" xmlns="http://www.w3.org/2000/svg">
<path d="M8.50705 17.8239C8.54537 17.4292 8.85236 17.0229 9.35731 16.8876C9.86225 16.7523 10.3312 16.9506 10.5618 17.2733C10.8828 17.7227 11.5074 17.8267 11.9568 17.5056C12.4061 17.1846 12.5102 16.56 12.1891 16.1106C11.4551 15.0833 10.1185 14.6131 8.83967 14.9558C7.56083 15.2984 6.6384 16.374 6.51641 17.6306C6.46304 18.1803 6.86541 18.6692 7.41511 18.7226C7.96481 18.7759 8.45369 18.3736 8.50705 17.8239Z" fill="#1C274C"/>
<path d="M16.2349 15.7529C16.2732 15.3582 16.5802 14.952 17.0852 14.8167C17.5901 14.6814 18.0591 14.8797 18.2896 15.2023C18.6107 15.6517 19.2353 15.7557 19.6846 15.4347C20.134 15.1136 20.238 14.489 19.917 14.0397C19.183 13.0124 17.8464 12.5421 16.5675 12.8848C15.2887 13.2275 14.3663 14.303 14.2443 15.5597C14.1909 16.1094 14.5933 16.5982 15.143 16.6516C15.6927 16.705 16.1816 16.3026 16.2349 15.7529Z" fill="#1C274C"/>
<path d="M18.1008 21.6411L18.6968 20.8381C19.1403 21.1673 19.233 21.7936 18.9038 22.2371C18.5777 22.6765 17.9598 22.7715 17.5172 22.4531L17.5042 22.4448C17.4851 22.4327 17.4476 22.4102 17.3924 22.3818C17.2819 22.3249 17.102 22.2453 16.8575 22.1789C16.3754 22.0479 15.6182 21.9613 14.6099 22.2314C13.6016 22.5016 12.9892 22.9552 12.6371 23.3097C12.4586 23.4895 12.3426 23.6484 12.2753 23.7529C12.2417 23.8051 12.2205 23.8434 12.21 23.8633L12.203 23.8771C11.9788 24.3742 11.3962 24.6008 10.8941 24.3833C10.3873 24.1638 10.1544 23.5751 10.3739 23.0683L11.2915 23.4657C10.3739 23.0683 10.3737 23.0688 10.3739 23.0683L10.3748 23.0661L10.3758 23.0639L10.378 23.0589L10.3832 23.0473L10.3973 23.0171C10.4083 22.9941 10.4226 22.9653 10.4405 22.9313C10.4762 22.8634 10.5265 22.7747 10.5935 22.6705C10.7276 22.4622 10.9296 22.1909 11.218 21.9004C11.8 21.3144 12.7173 20.668 14.0923 20.2996C15.4672 19.9312 16.5849 20.0323 17.3818 20.2488C17.7769 20.3561 18.0875 20.4902 18.3077 20.6035C18.4179 20.6602 18.5057 20.7119 18.5707 20.7528C18.6031 20.7733 18.6299 20.7911 18.651 20.8056L18.6782 20.8246L18.6886 20.8321L18.693 20.8353L18.695 20.8368L18.6968 20.8381C18.6973 20.8385 18.6968 20.8381 18.1008 21.6411Z" fill="#1C274C"/>
<path fill-rule="evenodd" clip-rule="evenodd" d="M18.1699 3.00084L18.2252 3.02672C19.782 3.75578 20.4816 4.08124 21.2055 4.31104C21.4621 4.39248 21.7211 4.46503 21.9821 4.52858C22.7183 4.70779 23.4787 4.7915 25.1758 4.9739L25.2364 4.98042C26.314 5.0962 27.2101 5.19249 27.9159 5.35396C28.6545 5.52293 29.3216 5.79079 29.8471 6.34346C30.1526 6.66481 30.3986 7.03892 30.575 7.4471C30.8746 8.14075 30.8766 8.86569 30.7667 9.63235C30.6606 10.3719 30.4291 11.2754 30.1474 12.3742L29.0063 16.826C28.0516 20.5509 25.6289 22.6205 23.1979 23.7447C22.2306 25.844 20.7128 27.4527 19.459 28.5229L19.4306 28.5472C19.0966 28.8324 18.7683 29.1127 18.3376 29.359C17.8899 29.6149 17.372 29.8131 16.6457 30.0166C15.9199 30.2199 15.3751 30.3194 14.862 30.3319C14.3674 30.3439 13.9454 30.2721 13.5199 30.1997L13.483 30.1934C10.3878 29.6674 5.46717 27.9084 3.9936 22.1593L2.85255 17.7075C2.57089 16.6087 2.33931 15.7053 2.23328 14.9657C2.12337 14.199 2.12534 13.4741 2.42498 12.7804C2.60131 12.3722 2.84731 11.9981 3.15285 11.6768C3.67832 11.1241 4.34543 10.8563 5.08402 10.6873C5.78982 10.5258 6.68594 10.4295 7.7635 10.3138L7.82416 10.3072C8.51608 10.2329 9.0523 10.1749 9.49465 10.1202L10.3282 6.86796C10.6097 5.76966 10.8413 4.86608 11.1034 4.16967C11.3744 3.4496 11.7257 2.81276 12.3301 2.3588C12.6844 2.09275 13.0834 1.89385 13.5089 1.77324C14.2425 1.56526 14.9552 1.68575 15.6719 1.92421C16.3597 2.15308 17.181 2.53771 18.1699 3.00084ZM27.069 16.3294C26.5195 18.4731 25.3883 19.9306 24.0523 20.9292C24.2511 19.6298 24.2099 18.2024 23.8129 16.6537L22.5715 11.811C22.747 11.7429 22.9053 11.6247 23.0228 11.4601C23.2534 11.1375 23.7223 10.9392 24.2273 11.0745C24.7322 11.2098 25.0392 11.616 25.0775 12.0107C25.1309 12.5604 25.6198 12.9628 26.1695 12.9094C26.7192 12.856 27.1216 12.3672 27.0682 11.8175C26.9462 10.5608 26.0238 9.48528 24.7449 9.14262C23.7504 8.87615 22.721 9.10126 21.9672 9.69766C21.9439 9.63107 21.9203 9.56618 21.8966 9.503C21.6256 8.78293 21.2742 8.1461 20.6698 7.69214C20.3156 7.42608 19.9165 7.22718 19.4911 7.10658C18.7979 6.91004 18.1233 7.00681 17.4464 7.21927C17.3086 7.16088 17.1653 7.11139 17.0171 7.07166C15.7382 6.729 14.4016 7.19922 13.6676 8.22651C13.5105 8.4465 13.4552 8.70846 13.4924 8.95625C12.7581 9.29162 12.2818 9.48967 11.7944 9.64437C11.7535 9.65736 11.7125 9.67013 11.6714 9.68267L12.2513 7.42051C12.5507 6.25228 12.7563 5.45585 12.9752 4.87412C13.1897 4.30425 13.3687 4.08008 13.5313 3.95796C13.6913 3.83775 13.8686 3.75007 14.0544 3.69741C14.2323 3.64697 14.4933 3.63985 15.0404 3.82192C15.6037 4.00934 16.3186 4.34233 17.377 4.83795L17.4482 4.87132C18.9151 5.55828 19.7373 5.94332 20.6004 6.21731C20.9005 6.31255 21.2035 6.39744 21.509 6.47182C22.3883 6.68588 23.2854 6.78228 24.884 6.95406L24.9621 6.96245C26.1159 7.08646 26.8932 7.17166 27.4699 7.30359C28.027 7.43104 28.2574 7.57398 28.3977 7.72156C28.5385 7.86971 28.6547 8.04509 28.739 8.24022C28.828 8.44638 28.8735 8.7443 28.7869 9.34852C28.6982 9.96743 28.4952 10.765 28.1958 11.9329L27.069 16.3294ZM17.9595 9.15525C17.3962 9.34267 16.6813 9.67567 15.623 10.1713L15.5517 10.2046C14.0849 10.8916 13.2627 11.2767 12.3995 11.5506C12.0995 11.6459 11.7964 11.7308 11.4909 11.8052C10.6117 12.0192 9.71451 12.1156 8.11595 12.2874L8.03788 12.2958C6.88406 12.4198 6.10673 12.505 5.53006 12.6369C4.97298 12.7644 4.74259 12.9073 4.60227 13.0549C4.46141 13.203 4.34529 13.3784 4.26099 13.5736C4.17194 13.7797 4.12641 14.0776 4.21304 14.6819C4.30177 15.3008 4.50475 16.0983 4.80411 17.2663L5.93097 21.6627C7.10663 26.2496 10.9943 27.7418 13.8181 28.2217C14.2829 28.3007 14.528 28.3394 14.8134 28.3324C15.0944 28.3256 15.4609 28.2715 16.1062 28.0907C16.7509 27.9101 17.0957 27.7652 17.3451 27.6226C17.5991 27.4774 17.7959 27.3131 18.1606 27.0018C20.3858 25.1023 23.0556 21.7541 21.8756 17.1503L20.7487 12.7538C20.4493 11.5856 20.2437 10.7892 20.0247 10.2074C19.8103 9.63758 19.6313 9.41341 19.4687 9.29129C19.3087 9.17109 19.1313 9.0834 18.9456 9.03074C18.7677 8.9803 18.5067 8.97318 17.9595 9.15525Z" fill="#1C274C"/>
</svg>
