<svg width="32" height="32" viewBox="0 0 32 32" fill="none" xmlns="http://www.w3.org/2000/svg">
<path fill-rule="evenodd" clip-rule="evenodd" d="M3.89811 13.6094C3.74623 14.3827 3.66663 15.182 3.66663 15.9998C3.66663 16.3017 3.67747 16.6011 3.6988 16.8976C3.72683 16.9204 3.75633 16.9442 3.78721 16.9689C4.08073 17.2036 4.49454 17.5157 4.97579 17.8262C5.98583 18.4777 7.109 18.9998 7.99996 18.9998C8.58077 18.9998 9.28502 18.7749 10.0239 18.4029C10.4729 18.1768 10.902 17.9132 11.2809 17.6563C11.0989 17.1379 11 16.5804 11 15.9998C11 13.2384 13.2385 10.9998 16 10.9998C18.7614 10.9998 21 13.2384 21 15.9998C21 17.0279 20.6897 17.9834 20.1577 18.778C20.4547 18.9194 20.7616 18.9998 21.0737 18.9998C21.691 18.9998 21.9826 18.7075 22.5624 18.0212C22.5764 18.0047 22.5905 17.9879 22.6049 17.9708C23.0868 17.3992 23.7905 16.5645 25.0397 16.3732C24.8685 16.3209 24.7093 16.2221 24.5824 16.0779C24.2173 15.6634 24.2574 15.0315 24.6719 14.6665L26.9093 12.6961C27.1685 12.4678 27.5127 12.398 27.8234 12.479C27.5152 11.4424 27.0744 10.4629 26.5206 9.56008L26.0404 10.0403C25.6499 10.4308 25.0167 10.4308 24.6262 10.0403C24.2357 9.64975 24.2357 9.01659 24.6262 8.62606L25.3248 7.92745C23.0634 5.31745 19.7245 3.6665 16 3.6665C13.6399 3.6665 11.4346 4.32942 9.5602 5.4792L10.0404 5.9594C10.4309 6.34992 10.4309 6.98309 10.0404 7.37361C9.64987 7.76413 9.01671 7.76413 8.62619 7.37361L7.92758 6.675C6.58722 7.83634 5.4998 9.28185 4.75901 10.9178C5.30645 10.8923 5.77327 11.3128 5.80382 11.8611L5.9087 13.7438C5.93942 14.2952 5.5173 14.7672 4.96587 14.7979C4.41444 14.8286 3.94252 14.4065 3.9118 13.8551L3.89811 13.6094ZM28.2057 14.2194L25.9937 16.1675C25.9122 16.2392 25.8223 16.2953 25.7277 16.336C26.7355 16.3744 27.591 16.7987 28.2649 17.3062C28.3101 16.8769 28.3333 16.4411 28.3333 15.9998C28.3333 15.3952 28.2898 14.8007 28.2057 14.2194ZM27.8009 19.5957C27.2124 18.9311 26.4258 18.3332 25.5789 18.3332C24.9617 18.3332 24.67 18.6255 24.0903 19.3118C24.0763 19.3283 24.0621 19.3451 24.0478 19.3622C23.5005 20.0113 22.6673 20.9998 21.0737 20.9998C20.1308 20.9998 19.3199 20.6573 18.6712 20.2272C17.8984 20.7166 16.9823 20.9998 16 20.9998C14.539 20.9998 13.2245 20.3733 12.3103 19.3742C11.8962 19.6507 11.4251 19.9366 10.9234 20.1892C10.0684 20.6197 9.03514 20.9998 7.99996 20.9998C6.64987 20.9998 5.27126 20.3495 4.23889 19.7241C5.81795 24.7153 10.4865 28.3332 16 28.3332C21.5606 28.3332 26.2618 24.6532 27.8009 19.5957ZM1.66663 15.9998C1.66663 8.08376 8.08388 1.6665 16 1.6665C23.916 1.6665 30.3333 8.08376 30.3333 15.9998C30.3333 23.9159 23.916 30.3332 16 30.3332C8.08388 30.3332 1.66663 23.9159 1.66663 15.9998ZM13.9595 4.62606C14.35 4.23554 14.9832 4.23554 15.3737 4.62606L16.7071 5.9594C17.0976 6.34992 17.0976 6.98309 16.7071 7.37361C16.3165 7.76413 15.6834 7.76413 15.2929 7.37361L13.9595 6.04028C13.569 5.64975 13.569 5.01659 13.9595 4.62606ZM21.9333 5.8665C22.3751 6.19787 22.4647 6.82468 22.1333 7.2665L20.1333 9.93317C19.8019 10.375 19.1751 10.4645 18.7333 10.1332C18.2915 9.8018 18.2019 9.175 18.5333 8.73317L20.5333 6.0665C20.8647 5.62468 21.4915 5.53513 21.9333 5.8665ZM14.9659 9.07435C15.1088 9.60782 14.7922 10.1562 14.2588 10.2991L12.4374 10.7871C11.9039 10.9301 11.3556 10.6135 11.2127 10.08C11.0697 9.54656 11.3863 8.99822 11.9198 8.85528L13.7411 8.36724C14.2746 8.2243 14.8229 8.54088 14.9659 9.07435ZM7.86244 9.56469C8.36521 9.33615 8.95807 9.55846 9.18661 10.0612L9.96691 11.7778C10.1955 12.2806 9.97315 12.8735 9.47037 13.102C8.96759 13.3305 8.37474 13.1082 8.14619 12.6055L7.36589 10.8889C7.13735 10.3861 7.35966 9.79323 7.86244 9.56469ZM22.1528 10.9696C22.7045 10.9437 23.1727 11.3699 23.1987 11.9216L23.2872 13.8051C23.3131 14.3568 22.8869 14.825 22.3352 14.8509C21.7836 14.8769 21.3153 14.4507 21.2894 13.899L21.2009 12.0155C21.1749 11.4638 21.6011 10.9955 22.1528 10.9696ZM16 12.9998C14.3431 12.9998 13 14.343 13 15.9998C13 17.6567 14.3431 18.9998 16 18.9998C17.6568 18.9998 19 17.6567 19 15.9998C19 14.343 17.6568 12.9998 16 12.9998ZM9.2574 14.5264C9.70308 14.8526 9.79995 15.4783 9.47377 15.924L8.36012 17.4456C8.03394 17.8913 7.40823 17.9882 6.96256 17.662C6.51688 17.3358 6.42001 16.7101 6.74619 16.2644L7.85984 14.7428C8.18602 14.2971 8.81173 14.2002 9.2574 14.5264Z" fill="black"/>
</svg>
