<svg width="32" height="32" viewBox="0 0 32 32" fill="none" xmlns="http://www.w3.org/2000/svg">
<path fill-rule="evenodd" clip-rule="evenodd" d="M15.0001 2.6665C15.0001 2.11422 15.4478 1.6665 16.0001 1.6665C23.9162 1.6665 30.3334 8.08376 30.3334 15.9998C30.3334 23.9159 23.9162 30.3332 16.0001 30.3332C8.084 30.3332 1.66675 23.9159 1.66675 15.9998C1.66675 15.4476 2.11446 14.9998 2.66675 14.9998C3.21903 14.9998 3.66675 15.4476 3.66675 15.9998C3.66675 22.8113 9.18857 28.3332 16.0001 28.3332C22.8116 28.3332 28.3334 22.8113 28.3334 15.9998C28.3334 9.18832 22.8116 3.6665 16.0001 3.6665C15.4478 3.6665 15.0001 3.21879 15.0001 2.6665ZM16.0001 10.9998C16.5524 10.9998 17.0001 11.4476 17.0001 11.9998V16.3332H21.3334C21.8857 16.3332 22.3334 16.7809 22.3334 17.3332C22.3334 17.8855 21.8857 18.3332 21.3334 18.3332H16.0001C15.4478 18.3332 15.0001 17.8855 15.0001 17.3332V11.9998C15.0001 11.4476 15.4478 10.9998 16.0001 10.9998Z" fill="black"/>
<path fill-rule="evenodd" clip-rule="evenodd" d="M12.1328 3.19656C12.3317 3.71179 12.0753 4.29069 11.5601 4.48958C11.3715 4.56238 11.1851 4.63968 11.0011 4.72136C10.4964 4.94545 9.9055 4.71791 9.68141 4.21313C9.45732 3.70836 9.68486 3.11749 10.1896 2.8934C10.4036 2.79839 10.6204 2.70846 10.8398 2.62377C11.3551 2.42488 11.934 2.68133 12.1328 3.19656ZM7.53035 5.65352C7.91123 6.05346 7.89579 6.68643 7.49586 7.06732C7.34963 7.20658 7.20682 7.34939 7.06756 7.49562C6.68668 7.89555 6.0537 7.91099 5.65377 7.53011C5.25383 7.14923 5.23839 6.51625 5.61927 6.11632C5.78096 5.94654 5.94678 5.78072 6.11656 5.61903C6.51649 5.23815 7.14947 5.25359 7.53035 5.65352ZM4.21338 9.68117C4.71816 9.90526 4.9457 10.4961 4.72161 11.0009C4.63993 11.1849 4.56262 11.3712 4.48983 11.5598C4.29094 12.0751 3.71203 12.3315 3.1968 12.1326C2.68157 11.9337 2.42513 11.3548 2.62402 10.8396C2.70871 10.6202 2.79863 10.4034 2.89364 10.1894C3.11773 9.68462 3.7086 9.45707 4.21338 9.68117Z" fill="black"/>
</svg>
