<svg width="20" height="20" viewBox="0 0 20 20" fill="none" xmlns="http://www.w3.org/2000/svg">
<path fill-rule="evenodd" clip-rule="evenodd" d="M1.87397 1.91055C1.54833 1.79606 1.19154 1.96723 1.07705 2.29287C0.962566 2.61851 1.13374 2.9753 1.45938 3.08979L1.67705 3.16632C2.23339 3.36192 2.59902 3.49154 2.86805 3.62355C3.12074 3.74754 3.23213 3.8479 3.30552 3.95528C3.38073 4.06535 3.43882 4.21654 3.4716 4.51933C3.50589 4.83617 3.50674 5.24885 3.50674 5.86547V8.1335C3.50674 9.34394 3.5181 10.2167 3.63231 10.8836C3.75425 11.5955 3.99769 12.1052 4.45288 12.5853C4.94777 13.1073 5.57511 13.3345 6.32197 13.4405C7.03716 13.5419 7.94537 13.5419 9.0668 13.5418L13.5716 13.5418C14.1896 13.5419 14.7097 13.5419 15.1305 13.4904C15.5769 13.4357 15.9841 13.3163 16.3395 13.0267C16.6949 12.737 16.8941 12.3624 17.0377 11.9361C17.1731 11.5344 17.2781 11.0251 17.4028 10.4197L17.8269 8.36196L17.8277 8.35813L17.8364 8.31456C17.9737 7.62715 18.0891 7.04891 18.1178 6.58382C18.148 6.09532 18.0924 5.61364 17.7741 5.19999C17.5783 4.94547 17.303 4.80138 17.0526 4.71339C16.7972 4.62365 16.5084 4.57173 16.217 4.53915C15.6444 4.47515 14.9489 4.47516 14.2667 4.47517L4.72324 4.47517C4.7205 4.44454 4.71754 4.41442 4.71434 4.38481C4.66956 3.97116 4.57255 3.5939 4.33756 3.25003C4.10075 2.90348 3.78587 2.68153 3.41868 2.50136C3.07527 2.33286 2.63891 2.17946 2.12514 1.99885L1.87397 1.91055ZM4.75673 5.72517H14.2407C14.9543 5.72517 15.5824 5.72601 16.0781 5.78141C16.3244 5.80895 16.5087 5.8472 16.6383 5.89271C16.7441 5.92991 16.7799 5.96028 16.7851 5.96468C16.785 5.96459 16.7853 5.96486 16.7851 5.96468C16.8362 6.03252 16.8919 6.1556 16.8702 6.50681C16.8474 6.87645 16.7503 7.37 16.6023 8.11161L16.6019 8.11346L16.1862 10.1302C16.0518 10.7826 15.9613 11.2162 15.8532 11.537C15.7506 11.8414 15.6542 11.9726 15.5499 12.0577C15.4455 12.1427 15.2976 12.2106 14.9786 12.2496C14.6427 12.2907 14.1997 12.2918 13.5336 12.2918H9.11457C7.93392 12.2918 7.1147 12.2904 6.49747 12.2028C5.9018 12.1184 5.58711 11.9648 5.35999 11.7253C5.09319 11.4439 4.94928 11.1683 4.86437 10.6726C4.77173 10.1317 4.75674 9.37437 4.75674 8.1335L4.75673 5.72517Z" fill="#9A9A9A"/>
<path fill-rule="evenodd" clip-rule="evenodd" d="M6.25001 18.1252C5.21447 18.1252 4.37501 17.2857 4.37501 16.2502C4.37501 15.2146 5.21447 14.3752 6.25001 14.3752C7.28554 14.3752 8.12501 15.2146 8.12501 16.2502C8.12501 17.2857 7.28554 18.1252 6.25001 18.1252ZM5.62501 16.2502C5.62501 16.5953 5.90483 16.8752 6.25001 16.8752C6.59519 16.8752 6.87501 16.5953 6.87501 16.2502C6.87501 15.905 6.59519 15.6252 6.25001 15.6252C5.90483 15.6252 5.62501 15.905 5.62501 16.2502Z" fill="#9A9A9A"/>
<path fill-rule="evenodd" clip-rule="evenodd" d="M13.75 18.1252C12.7145 18.1252 11.875 17.2858 11.875 16.2502C11.875 15.2147 12.7145 14.3752 13.75 14.3752C14.7855 14.3752 15.625 15.2147 15.625 16.2502C15.625 17.2858 14.7855 18.1252 13.75 18.1252ZM13.125 16.2502C13.125 16.5954 13.4048 16.8752 13.75 16.8752C14.0952 16.8752 14.375 16.5954 14.375 16.2502C14.375 15.9051 14.0952 15.6252 13.75 15.6252C13.4048 15.6252 13.125 15.9051 13.125 16.2502Z" fill="#9A9A9A"/>
</svg>
