<svg width="32" height="32" viewBox="0 0 32 32" fill="none" xmlns="http://www.w3.org/2000/svg">
<path d="M16.0003 21.3334C8.32037 21.3334 6.95986 13.6795 6.71884 7.60871C6.6518 5.92005 6.61828 5.07572 7.25257 4.29452C7.88686 3.51333 8.64601 3.38524 10.1643 3.12907C11.6631 2.8762 13.6222 2.66675 16.0003 2.66675C18.3783 2.66675 20.3375 2.8762 21.8363 3.12907C23.3546 3.38524 24.1137 3.51333 24.748 4.29452C25.3823 5.07572 25.3488 5.92005 25.2817 7.60871C25.0407 13.6795 23.6802 21.3334 16.0003 21.3334Z" stroke="black" stroke-width="1.5"/>
<path d="M16 21.3333V25.3333" stroke="black" stroke-width="1.5" stroke-linecap="round"/>
<path d="M20.6666 29.3333H11.3333L11.7855 27.0718C11.9102 26.4486 12.4574 26 13.093 26H18.9068C19.5424 26 20.0896 26.4486 20.2143 27.0718L20.6666 29.3333Z" stroke="black" stroke-width="1.5" stroke-linecap="round" stroke-linejoin="round"/>
<path d="M25.3333 6.66675L26.5981 7.08836C27.9182 7.52838 28.5782 7.7484 28.9557 8.27219C29.3332 8.79598 29.3332 9.49172 29.3332 10.8832L29.3332 10.9799C29.3331 12.1276 29.3331 12.7014 29.0569 13.1709C28.7806 13.6404 28.279 13.919 27.2758 14.4764L23.3333 16.6667" stroke="black" stroke-width="1.5"/>
<path d="M6.66667 6.66675L5.40184 7.08836C4.08176 7.52838 3.42173 7.7484 3.04421 8.27219C2.66669 8.79598 2.66671 9.49172 2.66675 10.8832L2.66675 10.9799C2.66678 12.1276 2.6668 12.7014 2.94305 13.1709C3.2193 13.6404 3.72092 13.919 4.72414 14.4764L8.66667 16.6667" stroke="black" stroke-width="1.5"/>
<path d="M14.8613 8.0301C15.3679 7.1212 15.6213 6.66675 16 6.66675C16.3787 6.66675 16.6321 7.1212 17.1387 8.0301L17.2698 8.26524C17.4138 8.52352 17.4858 8.65266 17.598 8.73787C17.7103 8.82308 17.8501 8.85471 18.1296 8.91797L18.3842 8.97556C19.3681 9.19817 19.86 9.30948 19.977 9.68584C20.0941 10.0622 19.7587 10.4544 19.088 11.2387L18.9144 11.4416C18.7238 11.6645 18.6285 11.776 18.5857 11.9138C18.5428 12.0517 18.5572 12.2004 18.586 12.4978L18.6122 12.7685C18.7136 13.815 18.7644 14.3382 18.4579 14.5708C18.1515 14.8034 17.6909 14.5914 16.7697 14.1672L16.5314 14.0575C16.2696 13.937 16.1387 13.8767 16 13.8767C15.8613 13.8767 15.7304 13.937 15.4686 14.0575L15.2303 14.1672C14.3091 14.5914 13.8485 14.8034 13.5421 14.5708C13.2356 14.3382 13.2864 13.815 13.3878 12.7685L13.414 12.4978C13.4428 12.2004 13.4572 12.0517 13.4143 11.9138C13.3715 11.776 13.2762 11.6645 13.0856 11.4416L12.912 11.2387C12.2413 10.4544 11.9059 10.0622 12.023 9.68584C12.14 9.30948 12.6319 9.19817 13.6158 8.97556L13.8704 8.91797C14.1499 8.85471 14.2897 8.82308 14.402 8.73787C14.5142 8.65266 14.5862 8.52352 14.7302 8.26524L14.8613 8.0301Z" fill="#0D7FEA" stroke="#0D7FEA" stroke-width="1.5"/>
<path d="M24 29.3333H8" stroke="black" stroke-width="1.5" stroke-linecap="round"/>
</svg>
