<svg width="32" height="32" viewBox="0 0 32 32" fill="none" xmlns="http://www.w3.org/2000/svg">
<path fill-rule="evenodd" clip-rule="evenodd" d="M16.0003 1.66699C13.5633 1.66699 11.5485 1.88164 9.99795 2.14325L9.81814 2.17343C8.47118 2.3989 7.35163 2.58631 6.47625 3.66443C5.91485 4.35585 5.73372 5.10307 5.69197 5.9378L5.03589 6.15649C4.41839 6.36228 3.87716 6.54265 3.44777 6.74241C2.98358 6.95835 2.55818 7.23651 2.23297 7.68773C1.90776 8.13894 1.77841 8.63048 1.72035 9.13914C1.66665 9.60967 1.6667 10.1802 1.66675 10.831L1.66676 11.0247C1.66674 11.5604 1.66673 12.0336 1.70628 12.4294C1.74915 12.8583 1.84407 13.2753 2.08119 13.6782C2.31831 14.0812 2.63672 14.3667 2.99084 14.6125C3.31759 14.8392 3.73123 15.069 4.19957 15.3292L7.72112 17.2856C8.44032 18.7006 9.42828 19.9621 10.787 20.8734C11.9697 21.6666 13.3891 22.1646 15.0705 22.2977C15.0251 22.4119 15.0001 22.5365 15.0001 22.667V25.0003H13.0932C11.9809 25.0003 11.0233 25.7854 10.8051 26.8761L10.5136 28.3337H8.00008C7.4478 28.3337 7.00008 28.7814 7.00008 29.3337C7.00008 29.8859 7.4478 30.3337 8.00008 30.3337H24.0001C24.5524 30.3337 25.0001 29.8859 25.0001 29.3337C25.0001 28.7814 24.5524 28.3337 24.0001 28.3337H21.4866L21.195 26.8761C20.9769 25.7854 20.0193 25.0003 18.907 25.0003H17.0001V22.667C17.0001 22.5366 16.9751 22.4119 16.9297 22.2977C18.6112 22.1647 20.0308 21.6667 21.2136 20.8734C22.5724 19.962 23.5604 18.7004 24.2796 17.2853L27.8005 15.3292C28.2689 15.069 28.6825 14.8392 29.0093 14.6125C29.3634 14.3667 29.6818 14.0812 29.9189 13.6782C30.156 13.2753 30.251 12.8583 30.2938 12.4294C30.3334 12.0336 30.3334 11.5605 30.3333 11.0248L30.3334 10.8311C30.3334 10.1802 30.3335 9.60967 30.2798 9.13914C30.2217 8.63048 30.0924 8.13894 29.7671 7.68773C29.4419 7.23651 29.0165 6.95835 28.5523 6.74241C28.1229 6.54265 27.5817 6.36228 26.9642 6.15649L26.3086 5.93796C26.2669 5.10316 26.0858 4.35589 25.5243 3.66443C24.6489 2.58631 23.5294 2.3989 22.1824 2.17343L22.0026 2.14325C20.4521 1.88164 18.4373 1.66699 16.0003 1.66699ZM19.447 28.3337L19.2339 27.2683C19.2027 27.1125 19.0659 27.0003 18.907 27.0003H13.0932C12.9343 27.0003 12.7975 27.1125 12.7663 27.2683L12.5532 28.3337H19.447ZM5.71807 8.03728L5.73621 8.03123C5.83165 10.0583 6.06061 12.2987 6.63072 14.3919L5.2098 13.6025C4.69093 13.3142 4.36604 13.1324 4.13114 12.9694C3.91458 12.8191 3.84406 12.7305 3.80492 12.664C3.76579 12.5975 3.72258 12.4928 3.69637 12.2305C3.66793 11.946 3.66677 11.5737 3.66676 10.9801L3.66676 10.8834C3.66674 10.1646 3.66823 9.70953 3.70745 9.36595C3.74375 9.04793 3.80316 8.9297 3.85547 8.85713C3.90777 8.78455 4.00115 8.6908 4.29137 8.55579C4.60491 8.40993 5.03618 8.26458 5.71807 8.03728ZM26.2644 8.03139C26.1689 10.0583 25.94 12.2985 25.3699 14.3916L26.7903 13.6025C27.3092 13.3142 27.6341 13.1324 27.869 12.9694C28.0855 12.8191 28.156 12.7305 28.1952 12.664C28.2343 12.5975 28.2775 12.4928 28.3037 12.2305C28.3322 11.946 28.3333 11.5737 28.3333 10.9801L28.3334 10.8834C28.3334 10.1646 28.3319 9.70953 28.2927 9.36595C28.2564 9.04793 28.197 8.9297 28.1446 8.85713C28.0923 8.78455 27.999 8.6908 27.7087 8.55579C27.3952 8.40993 26.9639 8.26458 26.282 8.03728L26.2644 8.03139ZM10.3307 4.11538C11.7777 3.87124 13.6811 3.66699 16.0003 3.66699C18.3194 3.66699 20.2229 3.87124 21.6699 4.11538C23.2791 4.38689 23.6171 4.48846 23.9717 4.9251C24.3211 5.35542 24.3543 5.76241 24.2825 7.56928C24.163 10.5808 23.7657 13.8306 22.5354 16.3022C21.9281 17.5222 21.1341 18.5185 20.0996 19.2124C19.0717 19.9017 17.7457 20.3337 16.0003 20.3337C14.2549 20.3337 12.9288 19.9017 11.901 19.2124C10.8665 18.5185 10.0725 17.5222 9.4652 16.3022C8.23488 13.8306 7.83762 10.5808 7.71806 7.56928C7.64632 5.76241 7.6795 5.35542 8.02889 4.9251C8.38343 4.48846 8.72147 4.38689 10.3307 4.11538Z" fill="black"/>
</svg>
