<svg width="32" height="32" viewBox="0 0 32 32" fill="none" xmlns="http://www.w3.org/2000/svg">
<path fill-rule="evenodd" clip-rule="evenodd" d="M16 3.6665C11.0294 3.6665 7 7.69594 7 12.6665C7 15.3312 8.15678 17.7244 9.99875 19.3737L10.0046 19.3789C10.7468 20.0435 11.3106 20.5484 11.7137 20.9179C12.0932 21.2658 12.3938 21.5502 12.5514 21.7446L12.5685 21.7657C12.8635 22.1297 13.1206 22.4469 13.2901 22.8263C13.4597 23.2057 13.5245 23.6088 13.5989 24.0714L13.6032 24.0983C13.6413 24.3354 13.6566 24.6266 13.6627 24.9998H18.3373C18.3434 24.6266 18.3587 24.3354 18.3968 24.0983L18.4011 24.0714C18.4755 23.6088 18.5403 23.2057 18.7099 22.8263C18.8794 22.4469 19.1365 22.1297 19.4315 21.7657L19.4486 21.7446C19.6062 21.5502 19.9068 21.2658 20.2863 20.9179C20.6894 20.5484 21.2533 20.0435 21.9955 19.3789L22.0012 19.3737C23.8432 17.7244 25 15.3312 25 12.6665C25 7.69594 20.9706 3.6665 16 3.6665ZM18.3248 26.9998H13.6752C13.6796 27.1388 13.6862 27.2602 13.6961 27.3695C13.7233 27.6697 13.7692 27.7787 13.8006 27.8332C13.8884 27.9852 14.0146 28.1114 14.1667 28.1992C14.2212 28.2306 14.3301 28.2765 14.6303 28.3038C14.9443 28.3322 15.3585 28.3332 16 28.3332C16.6415 28.3332 17.0557 28.3322 17.3697 28.3038C17.6699 28.2765 17.7788 28.2306 17.8333 28.1992C17.9854 28.1114 18.1116 27.9852 18.1994 27.8332C18.2308 27.7787 18.2767 27.6697 18.3039 27.3695C18.3138 27.2602 18.3204 27.1388 18.3248 26.9998ZM5 12.6665C5 6.59137 9.92487 1.6665 16 1.6665C22.0751 1.6665 27 6.59137 27 12.6665C27 15.9235 25.5832 18.851 23.3354 20.8637C22.5862 21.5345 22.0312 22.0315 21.6379 22.3921C21.4412 22.5725 21.2908 22.7133 21.1798 22.8214C21.1245 22.8753 21.0822 22.9179 21.0507 22.951C21.0351 22.9673 21.0233 22.9801 21.0148 22.9896C21.0061 22.9993 21.0025 23.0038 21.0025 23.0037C20.6556 23.4318 20.5805 23.5423 20.5358 23.6423C20.4911 23.7424 20.4589 23.872 20.3714 24.416C20.3369 24.6307 20.3333 24.9986 20.3333 25.9998V26.0428C20.3334 26.6292 20.3334 27.135 20.2958 27.55C20.256 27.9889 20.1679 28.4236 19.9314 28.8332C19.6681 29.2892 19.2894 29.6679 18.8333 29.9312C18.4237 30.1677 17.9891 30.2558 17.5502 30.2956C17.1351 30.3332 16.6294 30.3332 16.043 30.3332H15.957C15.3706 30.3332 14.8649 30.3332 14.4498 30.2956C14.0109 30.2558 13.5763 30.1677 13.1667 29.9312C12.7106 29.6679 12.3319 29.2892 12.0686 28.8332C11.8321 28.4236 11.744 27.9889 11.7042 27.55C11.6666 27.135 11.6666 26.6292 11.6667 26.0428L11.6667 25.9998C11.6667 24.9986 11.6631 24.6307 11.6286 24.416C11.5411 23.872 11.5089 23.7424 11.4642 23.6423C11.4195 23.5423 11.3444 23.4318 10.9975 23.0037C10.9972 23.0034 10.9935 22.9989 10.9852 22.9896C10.9767 22.9801 10.9649 22.9673 10.9493 22.951C10.9178 22.9179 10.8755 22.8753 10.8202 22.8214C10.7092 22.7133 10.5588 22.5725 10.3621 22.3921C9.96881 22.0315 9.41379 21.5345 8.6646 20.8637C6.41684 18.851 5 15.9235 5 12.6665ZM13.1894 17.8009C13.6674 17.5244 14.2791 17.6877 14.5557 18.1658C14.8454 18.6666 15.3844 18.9998 16 18.9998C16.6156 18.9998 17.1546 18.6666 17.4443 18.1658C17.7209 17.6877 18.3326 17.5244 18.8106 17.8009C19.2887 18.0774 19.4521 18.6892 19.1755 19.1672C18.7045 19.9815 17.9272 20.5994 17 20.8617V22.6665C17 23.2188 16.5523 23.6665 16 23.6665C15.4477 23.6665 15 23.2188 15 22.6665V20.8617C14.0728 20.5994 13.2955 19.9815 12.8245 19.1672C12.5479 18.6892 12.7113 18.0774 13.1894 17.8009Z" fill="black"/>
</svg>
