<svg width="20" height="20" viewBox="0 0 20 20" fill="none" xmlns="http://www.w3.org/2000/svg">
<path fill-rule="evenodd" clip-rule="evenodd" d="M5.91565 1.04154C5.9557 1.04156 5.99633 1.04157 6.03757 1.04157H13.9625C14.0038 1.04157 14.0444 1.04156 14.0845 1.04154C14.9318 1.04117 15.5149 1.04091 16.006 1.21179C16.9334 1.53451 17.6535 2.28089 17.9622 3.22116L17.3684 3.41612L17.9622 3.22116C18.1256 3.71876 18.1254 4.31029 18.1251 5.18863C18.1251 5.22793 18.1251 5.26782 18.1251 5.30829V16.9784C18.1251 18.1994 16.6859 18.9264 15.738 18.059C15.6718 17.9984 15.5783 17.9984 15.5121 18.059L15.1095 18.4274C14.336 19.1352 13.1641 19.1352 12.3906 18.4274C12.0948 18.1567 11.6553 18.1567 11.3595 18.4274C10.586 19.1352 9.41412 19.1352 8.64063 18.4274C8.34481 18.1567 7.90531 18.1567 7.60948 18.4274C6.836 19.1352 5.66412 19.1352 4.89063 18.4274L4.48805 18.059C4.42182 17.9984 4.32829 17.9984 4.26206 18.059C3.31421 18.9264 1.87506 18.1994 1.87506 16.9784V5.30829C1.87506 5.26782 1.87504 5.22794 1.87503 5.18863C1.87471 4.31029 1.8745 3.71876 2.03787 3.22116C2.34659 2.28089 3.06668 1.53451 3.99415 1.21179C4.48525 1.04091 5.06836 1.04117 5.91565 1.04154ZM6.03757 2.29157C5.02 2.29157 4.6695 2.30031 4.40494 2.39237C3.85546 2.58356 3.41599 3.03091 3.2255 3.61109C3.13293 3.89303 3.12506 4.26481 3.12506 5.30829V16.9784C3.12506 17.0776 3.17499 17.1383 3.23764 17.1672C3.27028 17.1823 3.3022 17.1862 3.3288 17.1827C3.35225 17.1795 3.38259 17.1694 3.41821 17.1368C3.96211 16.6391 4.78801 16.6391 5.3319 17.1368L5.73448 17.5052C6.03031 17.7759 6.46981 17.7759 6.76563 17.5052C7.53912 16.7974 8.711 16.7974 9.48448 17.5052C9.78031 17.7759 10.2198 17.7759 10.5156 17.5052C11.2891 16.7974 12.461 16.7974 13.2345 17.5052C13.5303 17.7759 13.9698 17.7759 14.2656 17.5052L14.6682 17.1368C15.2121 16.6391 16.038 16.6391 16.5819 17.1368C16.6175 17.1694 16.6479 17.1795 16.6713 17.1827C16.6979 17.1862 16.7298 17.1823 16.7625 17.1672C16.8251 17.1383 16.8751 17.0776 16.8751 16.9784V5.30829C16.8751 4.26481 16.8672 3.89303 16.7746 3.61109C16.5841 3.03091 16.1447 2.58356 15.5952 2.39237C15.3306 2.30031 14.9801 2.29157 13.9625 2.29157H6.03757ZM5.20839 6.24991C5.20839 5.90473 5.48821 5.62491 5.83339 5.62491H6.25006C6.59523 5.62491 6.87506 5.90473 6.87506 6.24991C6.87506 6.59508 6.59523 6.87491 6.25006 6.87491H5.83339C5.48821 6.87491 5.20839 6.59508 5.20839 6.24991ZM8.12506 6.24991C8.12506 5.90473 8.40488 5.62491 8.75006 5.62491H14.1667C14.5119 5.62491 14.7917 5.90473 14.7917 6.24991C14.7917 6.59508 14.5119 6.87491 14.1667 6.87491H8.75006C8.40488 6.87491 8.12506 6.59508 8.12506 6.24991ZM5.20839 9.16657C5.20839 8.8214 5.48821 8.54157 5.83339 8.54157H6.25006C6.59523 8.54157 6.87506 8.8214 6.87506 9.16657C6.87506 9.51175 6.59523 9.79157 6.25006 9.79157H5.83339C5.48821 9.79157 5.20839 9.51175 5.20839 9.16657ZM8.12506 9.16657C8.12506 8.8214 8.40488 8.54157 8.75006 8.54157H14.1667C14.5119 8.54157 14.7917 8.8214 14.7917 9.16657C14.7917 9.51175 14.5119 9.79157 14.1667 9.79157H8.75006C8.40488 9.79157 8.12506 9.51175 8.12506 9.16657ZM5.20839 12.0832C5.20839 11.7381 5.48821 11.4582 5.83339 11.4582H6.25006C6.59523 11.4582 6.87506 11.7381 6.87506 12.0832C6.87506 12.4284 6.59523 12.7082 6.25006 12.7082H5.83339C5.48821 12.7082 5.20839 12.4284 5.20839 12.0832ZM8.12506 12.0832C8.12506 11.7381 8.40488 11.4582 8.75006 11.4582H14.1667C14.5119 11.4582 14.7917 11.7381 14.7917 12.0832C14.7917 12.4284 14.5119 12.7082 14.1667 12.7082H8.75006C8.40488 12.7082 8.12506 12.4284 8.12506 12.0832Z" fill="#9A9A9A"/>
</svg>
