<svg width="32" height="32" viewBox="0 0 32 32" fill="none" xmlns="http://www.w3.org/2000/svg">
<path fill-rule="evenodd" clip-rule="evenodd" d="M11.8946 9.72399C12.4154 9.53994 12.9867 9.81287 13.1707 10.3336C13.583 11.5001 14.6956 12.3335 16.0003 12.3335C17.3049 12.3335 18.4175 11.5001 18.8298 10.3336C19.0139 9.81287 19.5852 9.53994 20.1059 9.72399C20.6266 9.90804 20.8996 10.4794 20.7155 11.0001C20.0296 12.9407 18.1789 14.3335 16.0003 14.3335C13.8217 14.3335 11.971 12.9407 11.285 11.0001C11.101 10.4794 11.3739 9.90804 11.8946 9.72399ZM16.4808 7.3335H15.5192C13.3515 7.3335 11.9087 7.33705 10.816 7.47206C9.77821 7.60028 9.29986 7.82321 8.96418 8.1018C8.6285 8.38039 8.32124 8.80947 8.00396 9.80583C7.66989 10.855 7.4005 12.2724 7.00101 14.403C6.44104 17.3895 6.06561 19.418 5.99892 20.9459C5.93464 22.4187 6.18143 23.0448 6.52793 23.4623C6.87444 23.8798 7.44433 24.2377 8.90369 24.446C10.4177 24.662 12.4807 24.6668 15.5192 24.6668H16.4808C19.5194 24.6668 21.5823 24.662 23.0964 24.446C24.5557 24.2377 25.1256 23.8798 25.4721 23.4623C25.8186 23.0448 26.0654 22.4187 26.0011 20.9459C25.9344 19.418 25.559 17.3895 24.999 14.403C24.5995 12.2724 24.3302 10.855 23.9961 9.80583C23.6788 8.80947 23.3715 8.38039 23.0359 8.1018C22.7002 7.82321 22.2218 7.60028 21.1841 7.47206C20.0913 7.33705 18.6485 7.3335 16.4808 7.3335ZM7.68691 6.56278C6.20571 7.79206 5.81556 9.87285 5.03527 14.0344C3.93804 19.8863 3.38942 22.8123 4.98892 24.7396C6.58841 26.6668 9.56535 26.6668 15.5192 26.6668H16.4808C22.4347 26.6668 25.4116 26.6668 27.0111 24.7396C28.6106 22.8123 28.062 19.8863 26.9648 14.0344C26.1845 9.87285 25.7943 7.79206 24.3131 6.56278C22.8319 5.3335 20.7149 5.3335 16.4808 5.3335H15.5192C11.2851 5.3335 9.1681 5.3335 7.68691 6.56278Z" fill="black"/>
</svg>
