<svg width="32" height="32" viewBox="0 0 32 32" fill="none" xmlns="http://www.w3.org/2000/svg">
<path d="M17.0001 2.6665C17.0001 2.11422 16.5524 1.6665 16.0001 1.6665C15.4478 1.6665 15.0001 2.11422 15.0001 2.6665V6.6665C15.0001 7.21879 15.4478 7.6665 16.0001 7.6665C16.5524 7.6665 17.0001 7.21879 17.0001 6.6665V2.6665Z" fill="black"/>
<path d="M19.4293 14.4062C18.9174 14.199 18.3344 14.446 18.1272 14.958C17.92 15.4699 18.167 16.0529 18.6789 16.2601C19.7648 16.6997 20.6333 17.5681 21.0728 18.654C21.2801 19.166 21.8631 19.413 22.375 19.2058C22.8869 18.9985 23.1339 18.4155 22.9267 17.9036C22.2839 16.3156 21.0173 15.049 19.4293 14.4062Z" fill="black"/>
<path fill-rule="evenodd" clip-rule="evenodd" d="M16.0001 9.6665C9.55676 9.6665 4.33341 14.8898 4.33341 21.3332V28.3332H2.66675C2.11446 28.3332 1.66675 28.7809 1.66675 29.3332C1.66675 29.8855 2.11446 30.3332 2.66675 30.3332H29.3334C29.8857 30.3332 30.3334 29.8855 30.3334 29.3332C30.3334 28.7809 29.8857 28.3332 29.3334 28.3332H27.6667V21.3332C27.6667 14.8898 22.4434 9.6665 16.0001 9.6665ZM17.0001 28.3332H25.6667V21.3332C25.6667 15.9944 21.3388 11.6665 16.0001 11.6665C10.6613 11.6665 6.33341 15.9944 6.33341 21.3332V28.3332H15.0001V26.1625C13.8349 25.7506 13.0001 24.6394 13.0001 23.3332C13.0001 21.6763 14.3432 20.3332 16.0001 20.3332C17.6569 20.3332 19.0001 21.6763 19.0001 23.3332C19.0001 24.6394 18.1653 25.7506 17.0001 26.1625V28.3332ZM16.0001 24.3332C16.5524 24.3332 17.0001 23.8855 17.0001 23.3332C17.0001 22.7809 16.5524 22.3332 16.0001 22.3332C15.4478 22.3332 15.0001 22.7809 15.0001 23.3332C15.0001 23.8855 15.4478 24.3332 16.0001 24.3332Z" fill="black"/>
<path d="M28.7072 7.29273C29.0977 7.68325 29.0977 8.31642 28.7072 8.70694L26.7072 10.7069C26.3167 11.0975 25.6835 11.0975 25.293 10.7069C24.9024 10.3164 24.9024 9.68325 25.293 9.29273L27.293 7.29273C27.6835 6.90221 28.3167 6.90221 28.7072 7.29273Z" fill="black"/>
<path d="M4.70719 7.29273C4.31666 6.90221 3.6835 6.90221 3.29297 7.29273C2.90245 7.68325 2.90245 8.31642 3.29297 8.70694L5.29297 10.7069C5.6835 11.0975 6.31666 11.0975 6.70719 10.7069C7.09771 10.3164 7.09771 9.68325 6.70719 9.29273L4.70719 7.29273Z" fill="black"/>
</svg>
